<svg width="441" height="451" viewBox="0 0 441 451" fill="none" xmlns="http://www.w3.org/2000/svg">
<path d="M125 297.5V377.5M292 273.51L290 377.51M125.236 377.075L207.236 326.075M207.764 326.075L289.764 377.075M0.5 15.5C0.5 7.21574 7.21573 0.5 15.5 0.5H425.5C433.784 0.5 440.5 7.21573 440.5 15.5V435.5C440.5 443.784 433.784 450.5 425.5 450.5H15.5C7.21574 450.5 0.5 443.784 0.5 435.5V15.5ZM124.5 122.5C124.5 109.245 135.245 98.5 148.5 98.5H269.5C282.755 98.5 293.5 109.245 293.5 122.5V302.5C293.5 315.755 282.755 326.5 269.5 326.5H148.5C135.245 326.5 124.5 315.755 124.5 302.5V122.5Z" stroke="white"/>
</svg>
