<svg width="440" height="450" viewBox="0 0 440 450" fill="none" xmlns="http://www.w3.org/2000/svg">
<path d="M0 10C0 4.47715 4.47715 0 10 0H430C435.523 0 440 4.47715 440 10V440C440 445.523 435.523 450 430 450H9.99999C4.47714 450 0 445.523 0 440V10Z" fill="#12141D"/>
<path d="M57.1506 69.8557C57.3727 41.5529 81.0571 18.7847 110.051 19.0015C139.045 19.2184 162.37 42.3381 162.148 70.6408L159.869 360.965C159.647 389.267 135.963 412.036 106.968 411.819C77.9744 411.602 54.6501 388.482 54.8722 360.18L57.1506 69.8557Z" fill="url(#paint0_linear_5_22)"/>
<path d="M58 365.145C58 339.267 79.4903 318.289 106 318.289H337C363.51 318.289 385 339.267 385 365.145C385 391.022 363.51 412 337 412H106C79.4903 412 58 391.022 58 365.145Z" fill="url(#paint1_linear_5_22)"/>
<path d="M354 186.5C354 231.511 317.063 268 271.5 268C225.937 268 189 231.511 189 186.5C189 141.489 225.937 105 271.5 105C317.063 105 354 141.489 354 186.5Z" fill="white"/>
<path d="M341.967 110.996L361.49 91.8622L368.09 99.3351L348.567 118.469L341.967 110.996Z" fill="white"/>
<path d="M374.501 83.9414L362.947 116.592L344.069 97.8449L374.501 83.9414Z" fill="white"/>
<path d="M0 10C0 4.47715 4.47715 0 10 0H430C435.523 0 440 4.47715 440 10V440C440 445.523 435.523 450 430 450H9.99999C4.47714 450 0 445.523 0 440V10Z" fill="#12141D"/>
<path d="M57.1506 69.8557C57.3727 41.5529 81.0571 18.7847 110.051 19.0015C139.045 19.2184 162.37 42.3381 162.148 70.6408L159.869 360.965C159.647 389.267 135.963 412.036 106.968 411.819C77.9744 411.602 54.6501 388.482 54.8722 360.18L57.1506 69.8557Z" fill="url(#paint2_linear_5_22)"/>
<path d="M58 365.145C58 339.267 79.4903 318.289 106 318.289H337C363.51 318.289 385 339.267 385 365.145C385 391.022 363.51 412 337 412H106C79.4903 412 58 391.022 58 365.145Z" fill="url(#paint3_linear_5_22)"/>
<path d="M354 186.5C354 231.511 317.063 268 271.5 268C225.937 268 189 231.511 189 186.5C189 141.489 225.937 105 271.5 105C317.063 105 354 141.489 354 186.5Z" fill="white"/>
<path d="M341.967 110.996L361.49 91.8622L368.09 99.3351L348.567 118.469L341.967 110.996Z" fill="white"/>
<path d="M374.501 83.9414L362.947 116.592L344.069 97.8449L374.501 83.9414Z" fill="white"/>
<defs>
<linearGradient id="paint0_linear_5_22" x1="220" y1="0" x2="220" y2="450" gradientUnits="userSpaceOnUse">
<stop offset="0.197115" stop-color="#A6E1FA"/>
<stop offset="1" stop-color="#8E94F2"/>
</linearGradient>
<linearGradient id="paint1_linear_5_22" x1="220" y1="0" x2="220" y2="450" gradientUnits="userSpaceOnUse">
<stop offset="0.197115" stop-color="#A6E1FA"/>
<stop offset="1" stop-color="#8E94F2"/>
</linearGradient>
<linearGradient id="paint2_linear_5_22" x1="220" y1="0" x2="220" y2="450" gradientUnits="userSpaceOnUse">
<stop offset="0.197115" stop-color="#A6E1FA"/>
<stop offset="1" stop-color="#8E94F2"/>
</linearGradient>
<linearGradient id="paint3_linear_5_22" x1="220" y1="0" x2="220" y2="450" gradientUnits="userSpaceOnUse">
<stop offset="0.197115" stop-color="#A6E1FA"/>
<stop offset="1" stop-color="#8E94F2"/>
</linearGradient>
</defs>
</svg>
